<?xml version="1.0" encoding="UTF-8" standalone="yes"?>
<!DOCTYPE svg PUBLIC "-//W3C//DTD SVG 1.1//EN"
    "http://www.w3.org/Graphics/SVG/1.1/DTD/svg11.dtd">
<svg version="1.1"
     baseProfile="full"
     xmlns="http://www.w3.org/2000/svg"
     xmlns:xlink="http://www.w3.org/1999/xlink"
     xmlns:ev="http://www.w3.org/2001/xml-events"
     width="100%" height="100%">
     <style>
         .key_label    { font: 600 9pt sans-serif; }
         .key_label_sm { font: 600 6pt  sans-serif; }
     </style>
<rect x="50" y="50" width="36" height="27" rx="3" ry="3" fill="lightpink" stroke="gray" stroke-width="2" />
<text x="56" y="71" class="key_label" style="fill: black;" >Esc</text>
<rect x="134" y="50" width="36" height="27" rx="3" ry="3" fill="lightpink" stroke="gray" stroke-width="2" />
<text x="140" y="71" class="key_label" style="fill: black;" >F1</text>
<rect x="176" y="50" width="36" height="27" rx="3" ry="3" fill="lightsalmon" stroke="gray" stroke-width="2" />
<text x="182" y="71" class="key_label" style="fill: black;" >F2</text>
<rect x="218" y="50" width="36" height="27" rx="3" ry="3" fill="khaki" stroke="gray" stroke-width="2" />
<text x="224" y="71" class="key_label" style="fill: black;" >F3</text>
<rect x="260" y="50" width="36" height="27" rx="3" ry="3" fill="lightskyblue" stroke="gray" stroke-width="2" />
<text x="266" y="71" class="key_label" style="fill: black;" >F4</text>
<rect x="322" y="50" width="36" height="27" rx="3" ry="3" fill="palegreen" stroke="gray" stroke-width="2" />
<text x="328" y="71" class="key_label" style="fill: black;" >F5</text>
<rect x="364" y="50" width="36" height="27" rx="3" ry="3" fill="khaki" stroke="gray" stroke-width="2" />
<text x="370" y="71" class="key_label" style="fill: black;" >F6</text>
<rect x="406" y="50" width="36" height="27" rx="3" ry="3" fill="lightsalmon" stroke="gray" stroke-width="2" />
<text x="412" y="71" class="key_label" style="fill: black;" >F7</text>
<rect x="448" y="50" width="36" height="27" rx="3" ry="3" fill="lightpink" stroke="gray" stroke-width="2" />
<text x="454" y="71" class="key_label" style="fill: black;" >F8</text>
<rect x="510" y="50" width="36" height="27" rx="3" ry="3" fill="palegreen" stroke="gray" stroke-width="2" />
<text x="516" y="71" class="key_label" style="fill: black;" >F9</text>
<rect x="552" y="50" width="36" height="27" rx="3" ry="3" fill="khaki" stroke="gray" stroke-width="2" />
<text x="558" y="71" class="key_label" style="fill: black;" >F10</text>
<rect x="594" y="50" width="36" height="27" rx="3" ry="3" fill="lightsalmon" stroke="gray" stroke-width="2" />
<text x="600" y="71" class="key_label" style="fill: black;" >F11</text>
<rect x="636" y="50" width="36" height="27" rx="3" ry="3" fill="lightpink" stroke="gray" stroke-width="2" />
<text x="642" y="71" class="key_label" style="fill: black;" >F12</text>
<rect x="699" y="50" width="36" height="27" rx="3" ry="3" fill="palegreen" stroke="gray" stroke-width="2" />
<text x="703" y="66" class="key_label_sm" style="fill: black;" >PrtSc</text><text x="703" y="74" class="key_label_sm" style="fill: black;" >SysRq</text>
<rect x="741" y="50" width="36" height="27" rx="3" ry="3" fill="khaki" stroke="gray" stroke-width="2" />
<text x="745" y="66" class="key_label_sm" style="fill: black;" >Scroll</text><text x="745" y="74" class="key_label_sm" style="fill: black;" >Lock</text>
<rect x="783" y="50" width="36" height="27" rx="3" ry="3" fill="lightsalmon" stroke="gray" stroke-width="2" />
<text x="787" y="66" class="key_label_sm" style="fill: black;" >Pause</text><text x="787" y="74" class="key_label_sm" style="fill: black;" >Break</text>
<rect x="50" y="91" width="36" height="36" rx="3" ry="3" fill="lightpink" stroke="gray" stroke-width="2" />
<text x="56" y="107" class="key_label" style="fill: black;" >~</text><text x="58" y="121" class="key_label" style="fill: black;" >`</text><text x="70" y="121" class="key_label" style="fill: red;" >Ё</text>
<rect x="92" y="91" width="36" height="36" rx="3" ry="3" fill="lightpink" stroke="gray" stroke-width="2" />
<text x="100" y="107" class="key_label" style="fill: black;" >!</text><text x="98" y="121" class="key_label" style="fill: black;" >1</text>
<rect x="134" y="91" width="36" height="36" rx="3" ry="3" fill="lightpink" stroke="gray" stroke-width="2" />
<text x="140" y="107" class="key_label" style="fill: black;" >@</text><text x="140" y="121" class="key_label" style="fill: black;" >2</text><text x="154" y="107" class="key_label" style="fill: red;" >&quot;</text>
<rect x="176" y="91" width="36" height="36" rx="3" ry="3" fill="lightsalmon" stroke="gray" stroke-width="2" />
<text x="182" y="107" class="key_label" style="fill: black;" >#</text><text x="182" y="121" class="key_label" style="fill: black;" >3</text><text x="196" y="107" class="key_label" style="fill: red;" >№</text>
<rect x="218" y="91" width="36" height="36" rx="3" ry="3" fill="khaki" stroke="gray" stroke-width="2" />
<text x="224" y="107" class="key_label" style="fill: black;" >$</text><text x="224" y="121" class="key_label" style="fill: black;" >4</text><text x="240" y="107" class="key_label" style="fill: red;" >;</text>
<rect x="260" y="91" width="36" height="36" rx="3" ry="3" fill="lightskyblue" stroke="gray" stroke-width="2" />
<text x="266" y="107" class="key_label" style="fill: black;" >%</text><text x="266" y="121" class="key_label" style="fill: black;" >5</text>
<rect x="302" y="91" width="36" height="36" rx="3" ry="3" fill="lightskyblue" stroke="gray" stroke-width="2" />
<text x="308" y="107" class="key_label" style="fill: black;" >^</text><text x="308" y="121" class="key_label" style="fill: black;" >6</text><text x="324" y="107" class="key_label" style="fill: red;" >:</text>
<rect x="344" y="91" width="36" height="36" rx="3" ry="3" fill="palegreen" stroke="gray" stroke-width="2" />
<text x="350" y="107" class="key_label" style="fill: black;" >&amp;</text><text x="350" y="121" class="key_label" style="fill: black;" >7</text><text x="366" y="107" class="key_label" style="fill: red;" >?</text>
<rect x="386" y="91" width="36" height="36" rx="3" ry="3" fill="palegreen" stroke="gray" stroke-width="2" />
<text x="392" y="107" class="key_label" style="fill: black;" >*</text><text x="392" y="121" class="key_label" style="fill: black;" >8</text>
<rect x="428" y="91" width="36" height="36" rx="3" ry="3" fill="khaki" stroke="gray" stroke-width="2" />
<text x="436" y="107" class="key_label" style="fill: black;" >(</text><text x="434" y="121" class="key_label" style="fill: black;" >9</text>
<rect x="470" y="91" width="36" height="36" rx="3" ry="3" fill="lightsalmon" stroke="gray" stroke-width="2" />
<text x="478" y="107" class="key_label" style="fill: black;" >)</text><text x="476" y="121" class="key_label" style="fill: black;" >0</text>
<rect x="512" y="91" width="36" height="36" rx="3" ry="3" fill="lightpink" stroke="gray" stroke-width="2" />
<text x="518" y="107" class="key_label" style="fill: black;" >_</text><text x="518" y="121" class="key_label" style="fill: black;" >-</text>
<rect x="554" y="91" width="36" height="36" rx="3" ry="3" fill="lightpink" stroke="gray" stroke-width="2" />
<text x="560" y="107" class="key_label" style="fill: black;" >+</text><text x="560" y="121" class="key_label" style="fill: black;" >=</text>
<rect x="596" y="91" width="77" height="36" rx="3" ry="3" fill="lightpink" stroke="gray" stroke-width="2" />
<text x="607" y="114" class="key_label_sm" style="fill: black;" >Backspace</text>
<rect x="700" y="91" width="36" height="36" rx="3" ry="3" fill="palegreen" stroke="gray" stroke-width="2" />
<text x="706" y="114" class="key_label_sm" style="fill: black;" >Ins</text>
<rect x="742" y="91" width="36" height="36" rx="3" ry="3" fill="khaki" stroke="gray" stroke-width="2" />
<text x="748" y="114" class="key_label_sm" style="fill: black;" >Home</text>
<rect x="784" y="91" width="36" height="36" rx="3" ry="3" fill="lightsalmon" stroke="gray" stroke-width="2" />
<text x="790" y="114" class="key_label_sm" style="fill: black;" >PgUp</text>
<rect x="847" y="91" width="36" height="36" rx="3" ry="3" fill="palegreen" stroke="gray" stroke-width="2" />
<text x="851" y="107" class="key_label_sm" style="fill: black;" >Num</text><text x="851" y="117" class="key_label_sm" style="fill: black;" >Lock</text>
<rect x="889" y="91" width="36" height="36" rx="3" ry="3" fill="khaki" stroke="gray" stroke-width="2" />
<text x="895" y="114" class="key_label" style="fill: black;" >/</text>
<rect x="931" y="91" width="36" height="36" rx="3" ry="3" fill="lightsalmon" stroke="gray" stroke-width="2" />
<text x="937" y="114" class="key_label" style="fill: black;" >*</text>
<rect x="973" y="91" width="36" height="36" rx="3" ry="3" fill="lightpink" stroke="gray" stroke-width="2" />
<text x="979" y="114" class="key_label" style="fill: black;" >-</text>
<rect x="50" y="133" width="57" height="36" rx="3" ry="3" fill="lightpink" stroke="gray" stroke-width="2" />
<text x="59" y="156" class="key_label" style="fill: black;" >Tab</text>
<rect x="113" y="133" width="36" height="36" rx="3" ry="3" fill="lightpink" stroke="gray" stroke-width="2" />
<text x="119" y="149" class="key_label" style="fill: black;" >Q</text><text x="133" y="163" class="key_label" style="fill: red;" >Й</text>
<rect x="155" y="133" width="36" height="36" rx="3" ry="3" fill="lightsalmon" stroke="gray" stroke-width="2" />
<text x="161" y="149" class="key_label" style="fill: black;" >W</text><text x="175" y="163" class="key_label" style="fill: red;" >Ц</text>
<rect x="197" y="133" width="36" height="36" rx="3" ry="3" fill="khaki" stroke="gray" stroke-width="2" />
<text x="203" y="149" class="key_label" style="fill: black;" >E</text><text x="217" y="163" class="key_label" style="fill: red;" >У</text>
<rect x="239" y="133" width="36" height="36" rx="3" ry="3" fill="lightskyblue" stroke="gray" stroke-width="2" />
<text x="245" y="149" class="key_label" style="fill: black;" >R</text><text x="259" y="163" class="key_label" style="fill: red;" >К</text>
<rect x="281" y="133" width="36" height="36" rx="3" ry="3" fill="lightskyblue" stroke="gray" stroke-width="2" />
<text x="287" y="149" class="key_label" style="fill: black;" >T</text><text x="301" y="163" class="key_label" style="fill: red;" >Е</text>
<rect x="323" y="133" width="36" height="36" rx="3" ry="3" fill="palegreen" stroke="gray" stroke-width="2" />
<text x="329" y="149" class="key_label" style="fill: black;" >Y</text><text x="343" y="163" class="key_label" style="fill: red;" >Н</text>
<rect x="365" y="133" width="36" height="36" rx="3" ry="3" fill="palegreen" stroke="gray" stroke-width="2" />
<text x="371" y="149" class="key_label" style="fill: black;" >U</text><text x="385" y="163" class="key_label" style="fill: red;" >Г</text>
<rect x="407" y="133" width="36" height="36" rx="3" ry="3" fill="khaki" stroke="gray" stroke-width="2" />
<text x="413" y="149" class="key_label" style="fill: black;" >I</text><text x="427" y="163" class="key_label" style="fill: red;" >Ш</text>
<rect x="449" y="133" width="36" height="36" rx="3" ry="3" fill="lightsalmon" stroke="gray" stroke-width="2" />
<text x="455" y="149" class="key_label" style="fill: black;" >O</text><text x="469" y="163" class="key_label" style="fill: red;" >Щ</text>
<rect x="491" y="133" width="36" height="36" rx="3" ry="3" fill="lightpink" stroke="gray" stroke-width="2" />
<text x="497" y="149" class="key_label" style="fill: black;" >P</text><text x="511" y="163" class="key_label" style="fill: red;" >З</text>
<rect x="533" y="133" width="36" height="36" rx="3" ry="3" fill="lightpink" stroke="gray" stroke-width="2" />
<text x="539" y="149" class="key_label" style="fill: black;" >{</text><text x="539" y="163" class="key_label" style="fill: black;" >[</text><text x="553" y="163" class="key_label" style="fill: red;" >Х</text>
<rect x="575" y="133" width="36" height="36" rx="3" ry="3" fill="lightpink" stroke="gray" stroke-width="2" />
<text x="581" y="149" class="key_label" style="fill: black;" >}</text><text x="581" y="163" class="key_label" style="fill: black;" >]</text><text x="595" y="163" class="key_label" style="fill: red;" >Ъ</text>
<rect x="617" y="133" width="56" height="36" rx="3" ry="3" fill="lightpink" stroke="gray" stroke-width="2" />
<text x="623" y="149" class="key_label" style="fill: black;" >|</text><text x="623" y="163" class="key_label" style="fill: black;" >\</text><text x="649" y="149" class="key_label" style="fill: red;" >/</text><text x="647" y="163" class="key_label" style="fill: red;" >\</text>
<rect x="700" y="133" width="36" height="36" rx="3" ry="3" fill="palegreen" stroke="gray" stroke-width="2" />
<text x="706" y="156" class="key_label_sm" style="fill: black;" >Del</text>
<rect x="742" y="133" width="36" height="36" rx="3" ry="3" fill="khaki" stroke="gray" stroke-width="2" />
<text x="748" y="156" class="key_label_sm" style="fill: black;" >End</text>
<rect x="784" y="133" width="36" height="36" rx="3" ry="3" fill="lightsalmon" stroke="gray" stroke-width="2" />
<text x="790" y="156" class="key_label_sm" style="fill: black;" >PgDn</text>
<rect x="847" y="133" width="36" height="36" rx="3" ry="3" fill="palegreen" stroke="gray" stroke-width="2" />
<text x="853" y="149" class="key_label" style="fill: black;" >7</text><text x="853" y="163" class="key_label_sm" style="fill: black;" >Home</text>
<rect x="889" y="133" width="36" height="36" rx="3" ry="3" fill="khaki" stroke="gray" stroke-width="2" />
<text x="895" y="149" class="key_label" style="fill: black;" >8</text><text x="895" y="163" class="key_label_sm" style="fill: black;" >Up</text>
<rect x="931" y="133" width="36" height="36" rx="3" ry="3" fill="lightsalmon" stroke="gray" stroke-width="2" />
<text x="937" y="149" class="key_label" style="fill: black;" >9</text><text x="937" y="163" class="key_label_sm" style="fill: black;" >PgUp</text>
<rect x="973" y="133" width="36" height="78" rx="3" ry="3" fill="lightpink" stroke="gray" stroke-width="2" />
<text x="979" y="164" class="key_label" style="fill: black;" >+</text>
<rect x="50" y="175" width="67" height="36" rx="3" ry="3" fill="lightpink" stroke="gray" stroke-width="2" />
<text x="60" y="198" class="key_label_sm" style="fill: black;" >Caps Lock</text>
<rect x="123" y="175" width="36" height="36" rx="3" ry="3" fill="lightpink" stroke="gray" stroke-width="2" />
<text x="129" y="191" class="key_label" style="fill: black;" >A</text><text x="143" y="205" class="key_label" style="fill: red;" >Ф</text>
<rect x="165" y="175" width="36" height="36" rx="3" ry="3" fill="lightsalmon" stroke="gray" stroke-width="2" />
<text x="171" y="191" class="key_label" style="fill: black;" >S</text><text x="185" y="205" class="key_label" style="fill: red;" >Ы</text>
<rect x="207" y="175" width="36" height="36" rx="3" ry="3" fill="khaki" stroke="gray" stroke-width="2" />
<text x="213" y="191" class="key_label" style="fill: black;" >D</text><text x="227" y="205" class="key_label" style="fill: red;" >В</text>
<rect x="249" y="175" width="36" height="36" rx="3" ry="3" fill="lightskyblue" stroke="gray" stroke-width="2" />
<text x="255" y="191" class="key_label" style="fill: black;" >F</text><text x="269" y="205" class="key_label" style="fill: red;" >А</text>
<rect x="260" y="207" width="14" height="1" rx="0" ry="0" fill="white" stroke="red" stroke-width="1" /><rect x="291" y="175" width="36" height="36" rx="3" ry="3" fill="lightskyblue" stroke="gray" stroke-width="2" />
<text x="297" y="191" class="key_label" style="fill: black;" >G</text><text x="311" y="205" class="key_label" style="fill: red;" >П</text>
<rect x="333" y="175" width="36" height="36" rx="3" ry="3" fill="palegreen" stroke="gray" stroke-width="2" />
<text x="339" y="191" class="key_label" style="fill: black;" >H</text><text x="353" y="205" class="key_label" style="fill: red;" >Р</text>
<rect x="375" y="175" width="36" height="36" rx="3" ry="3" fill="palegreen" stroke="gray" stroke-width="2" />
<text x="381" y="191" class="key_label" style="fill: black;" >J</text><text x="395" y="205" class="key_label" style="fill: red;" >О</text>
<rect x="386" y="207" width="14" height="1" rx="0" ry="0" fill="white" stroke="red" stroke-width="1" /><rect x="417" y="175" width="36" height="36" rx="3" ry="3" fill="khaki" stroke="gray" stroke-width="2" />
<text x="423" y="191" class="key_label" style="fill: black;" >K</text><text x="437" y="205" class="key_label" style="fill: red;" >Л</text>
<rect x="459" y="175" width="36" height="36" rx="3" ry="3" fill="lightsalmon" stroke="gray" stroke-width="2" />
<text x="465" y="191" class="key_label" style="fill: black;" >L</text><text x="479" y="205" class="key_label" style="fill: red;" >Д</text>
<rect x="501" y="175" width="36" height="36" rx="3" ry="3" fill="lightpink" stroke="gray" stroke-width="2" />
<text x="509" y="191" class="key_label" style="fill: black;" >:</text><text x="509" y="205" class="key_label" style="fill: black;" >;</text><text x="521" y="205" class="key_label" style="fill: red;" >Ж</text>
<rect x="543" y="175" width="36" height="36" rx="3" ry="3" fill="lightpink" stroke="gray" stroke-width="2" />
<text x="549" y="191" class="key_label" style="fill: black;" >&quot;</text><text x="551" y="205" class="key_label" style="fill: black;" >&apos;</text><text x="563" y="205" class="key_label" style="fill: red;" >Э</text>
<rect x="585" y="175" width="88" height="36" rx="3" ry="3" fill="lightpink" stroke="gray" stroke-width="2" />
<text x="598" y="198" class="key_label" style="fill: black;" >Enter</text>
<rect x="847" y="175" width="36" height="36" rx="3" ry="3" fill="palegreen" stroke="gray" stroke-width="2" />
<text x="853" y="191" class="key_label" style="fill: black;" >4</text><text x="853" y="205" class="key_label_sm" style="fill: black;" >Left</text>
<rect x="889" y="175" width="36" height="36" rx="3" ry="3" fill="khaki" stroke="gray" stroke-width="2" />
<text x="895" y="191" class="key_label" style="fill: black;" >5</text><text x="895" y="205" class="key_label" style="fill: black;" > </text>
<rect x="900" y="207" width="14" height="1" rx="0" ry="0" fill="white" stroke="red" stroke-width="1" /><rect x="931" y="175" width="36" height="36" rx="3" ry="3" fill="lightsalmon" stroke="gray" stroke-width="2" />
<text x="937" y="191" class="key_label" style="fill: black;" >6</text><text x="937" y="205" class="key_label_sm" style="fill: black;" >Right</text>
<rect x="50" y="217" width="88" height="36" rx="3" ry="3" fill="lightpink" stroke="gray" stroke-width="2" />
<text x="63" y="240" class="key_label" style="fill: black;" >Shift</text>
<rect x="144" y="217" width="36" height="36" rx="3" ry="3" fill="lightpink" stroke="gray" stroke-width="2" />
<text x="150" y="233" class="key_label" style="fill: black;" >Z</text><text x="164" y="247" class="key_label" style="fill: red;" >Я</text>
<rect x="186" y="217" width="36" height="36" rx="3" ry="3" fill="lightsalmon" stroke="gray" stroke-width="2" />
<text x="192" y="233" class="key_label" style="fill: black;" >X</text><text x="206" y="247" class="key_label" style="fill: red;" >Ч</text>
<rect x="228" y="217" width="36" height="36" rx="3" ry="3" fill="khaki" stroke="gray" stroke-width="2" />
<text x="234" y="233" class="key_label" style="fill: black;" >C</text><text x="248" y="247" class="key_label" style="fill: red;" >С</text>
<rect x="270" y="217" width="36" height="36" rx="3" ry="3" fill="lightskyblue" stroke="gray" stroke-width="2" />
<text x="276" y="233" class="key_label" style="fill: black;" >V</text><text x="290" y="247" class="key_label" style="fill: red;" >М</text>
<rect x="312" y="217" width="36" height="36" rx="3" ry="3" fill="lightskyblue" stroke="gray" stroke-width="2" />
<text x="318" y="233" class="key_label" style="fill: black;" >B</text><text x="332" y="247" class="key_label" style="fill: red;" >И</text>
<rect x="354" y="217" width="36" height="36" rx="3" ry="3" fill="palegreen" stroke="gray" stroke-width="2" />
<text x="360" y="233" class="key_label" style="fill: black;" >N</text><text x="374" y="247" class="key_label" style="fill: red;" >Т</text>
<rect x="396" y="217" width="36" height="36" rx="3" ry="3" fill="palegreen" stroke="gray" stroke-width="2" />
<text x="402" y="233" class="key_label" style="fill: black;" >M</text><text x="416" y="247" class="key_label" style="fill: red;" >Ь</text>
<rect x="438" y="217" width="36" height="36" rx="3" ry="3" fill="khaki" stroke="gray" stroke-width="2" />
<text x="444" y="233" class="key_label" style="fill: black;" >&lt;</text><text x="446" y="247" class="key_label" style="fill: black;" >,</text><text x="458" y="247" class="key_label" style="fill: red;" >Б</text>
<rect x="480" y="217" width="36" height="36" rx="3" ry="3" fill="lightsalmon" stroke="gray" stroke-width="2" />
<text x="486" y="233" class="key_label" style="fill: black;" >&gt;</text><text x="488" y="247" class="key_label" style="fill: black;" >.</text><text x="500" y="247" class="key_label" style="fill: red;" >Ю</text>
<rect x="522" y="217" width="36" height="36" rx="3" ry="3" fill="lightpink" stroke="gray" stroke-width="2" />
<text x="530" y="233" class="key_label" style="fill: black;" >?</text><text x="530" y="247" class="key_label" style="fill: black;" >/</text><text x="544" y="233" class="key_label" style="fill: red;" >,</text><text x="544" y="247" class="key_label" style="fill: red;" >.</text>
<rect x="564" y="217" width="109" height="36" rx="3" ry="3" fill="lightpink" stroke="gray" stroke-width="2" />
<text x="579" y="240" class="key_label" style="fill: black;" >Shift</text>
<rect x="742" y="217" width="36" height="36" rx="3" ry="3" fill="khaki" stroke="gray" stroke-width="2" />
<text x="748" y="240" class="key_label_sm" style="fill: black;" >Up</text>
<rect x="847" y="217" width="36" height="36" rx="3" ry="3" fill="palegreen" stroke="gray" stroke-width="2" />
<text x="853" y="233" class="key_label" style="fill: black;" >1</text><text x="853" y="247" class="key_label_sm" style="fill: black;" >End</text>
<rect x="889" y="217" width="36" height="36" rx="3" ry="3" fill="khaki" stroke="gray" stroke-width="2" />
<text x="895" y="233" class="key_label" style="fill: black;" >2</text><text x="895" y="247" class="key_label_sm" style="fill: black;" >Down</text>
<rect x="931" y="217" width="36" height="36" rx="3" ry="3" fill="lightsalmon" stroke="gray" stroke-width="2" />
<text x="937" y="233" class="key_label" style="fill: black;" >3</text><text x="937" y="247" class="key_label_sm" style="fill: black;" >PgDn</text>
<rect x="973" y="217" width="36" height="78" rx="3" ry="3" fill="lightpink" stroke="gray" stroke-width="2" />
<text x="979" y="248" class="key_label_sm" style="fill: black;" >Enter</text>
<rect x="50" y="259" width="57" height="36" rx="3" ry="3" fill="lightpink" stroke="gray" stroke-width="2" />
<text x="59" y="282" class="key_label" style="fill: black;" >Ctrl</text>
<rect x="113" y="259" width="36" height="36" rx="3" ry="3" fill="lightsalmon" stroke="gray" stroke-width="2" />
<text x="119" y="282" class="key_label" style="fill: black;" >Win</text>
<rect x="155" y="259" width="58" height="36" rx="3" ry="3" fill="deepskyblue" stroke="gray" stroke-width="2" />
<text x="164" y="282" class="key_label" style="fill: black;" >Alt</text>
<rect x="219" y="259" width="246" height="36" rx="3" ry="3" fill="deepskyblue" stroke="gray" stroke-width="2" />

<rect x="471" y="259" width="46" height="36" rx="3" ry="3" fill="deepskyblue" stroke="gray" stroke-width="2" />
<text x="478" y="282" class="key_label" style="fill: black;" >Alt Gr</text>
<rect x="523" y="259" width="46" height="36" rx="3" ry="3" fill="palegreen" stroke="gray" stroke-width="2" />
<text x="530" y="282" class="key_label" style="fill: black;" >Win</text>
<rect x="575" y="259" width="46" height="36" rx="3" ry="3" fill="khaki" stroke="gray" stroke-width="2" />
<text x="582" y="282" class="key_label" style="fill: black;" >Menu</text>
<rect x="627" y="259" width="46" height="36" rx="3" ry="3" fill="lightsalmon" stroke="gray" stroke-width="2" />
<text x="634" y="282" class="key_label" style="fill: black;" >Ctrl</text>
<rect x="700" y="259" width="36" height="36" rx="3" ry="3" fill="palegreen" stroke="gray" stroke-width="2" />
<text x="706" y="282" class="key_label_sm" style="fill: black;" >Left</text>
<rect x="742" y="259" width="36" height="36" rx="3" ry="3" fill="khaki" stroke="gray" stroke-width="2" />
<text x="748" y="282" class="key_label_sm" style="fill: black;" >Down</text>
<rect x="784" y="259" width="36" height="36" rx="3" ry="3" fill="lightsalmon" stroke="gray" stroke-width="2" />
<text x="790" y="282" class="key_label_sm" style="fill: black;" >Right</text>
<rect x="847" y="259" width="77" height="36" rx="3" ry="3" fill="palegreen" stroke="gray" stroke-width="2" />
<text x="853" y="275" class="key_label" style="fill: black;" >0</text><text x="853" y="289" class="key_label_sm" style="fill: black;" >Ins</text>
<rect x="930" y="259" width="36" height="36" rx="3" ry="3" fill="lightsalmon" stroke="gray" stroke-width="2" />
<text x="938" y="275" class="key_label" style="fill: black;" >.</text><text x="936" y="289" class="key_label_sm" style="fill: black;" >Del</text>
<rect x="40" y="40" width="985" height="271" rx="3" ry="3" style="fill-opacity: .0;" stroke="black" stroke-width="3" /></svg>