<?xml version="1.0" encoding="UTF-8" standalone="yes"?>
<!DOCTYPE svg PUBLIC "-//W3C//DTD SVG 1.1//EN"
    "http://www.w3.org/Graphics/SVG/1.1/DTD/svg11.dtd">
<svg version="1.1"
     baseProfile="full"
     xmlns="http://www.w3.org/2000/svg"
     xmlns:xlink="http://www.w3.org/1999/xlink"
     xmlns:ev="http://www.w3.org/2001/xml-events"
     width="100%" height="100%">
     <style>
         .key_label    { font: 600 9pt sans-serif; }
         .key_label_sm { font: 600 6pt  sans-serif; }
     </style>
<rect x="50" y="50" width="36" height="27" rx="3" ry="3" fill="mistyrose" stroke="" stroke-width="2" />
<text x="56" y="71" class="key_label" >Esc</text>
<rect x="134" y="50" width="36" height="27" rx="3" ry="3" fill="mistyrose" stroke="" stroke-width="2" />
<text x="140" y="71" class="key_label" >F1</text>
<rect x="176" y="50" width="36" height="27" rx="3" ry="3" fill="blanchedalmond" stroke="" stroke-width="2" />
<text x="182" y="71" class="key_label" >F2</text>
<rect x="218" y="50" width="36" height="27" rx="3" ry="3" fill="lemonchiffon" stroke="" stroke-width="2" />
<text x="224" y="71" class="key_label" >F3</text>
<rect x="260" y="50" width="36" height="27" rx="3" ry="3" fill="lavender" stroke="" stroke-width="2" />
<text x="266" y="71" class="key_label" >F4</text>
<rect x="322" y="50" width="36" height="27" rx="3" ry="3" fill="lightcyan" stroke="" stroke-width="2" />
<text x="328" y="71" class="key_label" >F5</text>
<rect x="364" y="50" width="36" height="27" rx="3" ry="3" fill="lemonchiffon" stroke="" stroke-width="2" />
<text x="370" y="71" class="key_label" >F6</text>
<rect x="406" y="50" width="36" height="27" rx="3" ry="3" fill="blanchedalmond" stroke="" stroke-width="2" />
<text x="412" y="71" class="key_label" >F7</text>
<rect x="448" y="50" width="36" height="27" rx="3" ry="3" fill="mistyrose" stroke="" stroke-width="2" />
<text x="454" y="71" class="key_label" >F8</text>
<rect x="510" y="50" width="36" height="27" rx="3" ry="3" fill="lightcyan" stroke="" stroke-width="2" />
<text x="516" y="71" class="key_label" >F9</text>
<rect x="552" y="50" width="36" height="27" rx="3" ry="3" fill="lemonchiffon" stroke="" stroke-width="2" />
<text x="558" y="71" class="key_label" >F10</text>
<rect x="594" y="50" width="36" height="27" rx="3" ry="3" fill="blanchedalmond" stroke="" stroke-width="2" />
<text x="600" y="71" class="key_label" >F11</text>
<rect x="636" y="50" width="36" height="27" rx="3" ry="3" fill="mistyrose" stroke="" stroke-width="2" />
<text x="642" y="71" class="key_label" >F12</text>
<rect x="699" y="50" width="36" height="27" rx="3" ry="3" fill="lightcyan" stroke="" stroke-width="2" />
<text x="703" y="66" class="key_label_sm" >PrtSc</text><text x="703" y="74" class="key_label_sm" >SysRq</text>
<rect x="741" y="50" width="36" height="27" rx="3" ry="3" fill="lemonchiffon" stroke="" stroke-width="2" />
<text x="745" y="66" class="key_label_sm" >Scroll</text><text x="745" y="74" class="key_label_sm" >Lock</text>
<rect x="783" y="50" width="36" height="27" rx="3" ry="3" fill="blanchedalmond" stroke="" stroke-width="2" />
<text x="787" y="66" class="key_label_sm" >Pause</text><text x="787" y="74" class="key_label_sm" >Break</text>
<rect x="50" y="91" width="36" height="36" rx="3" ry="3" fill="mistyrose" stroke="" stroke-width="2" />
<text x="56" y="107" class="key_label" >~</text><text x="58" y="121" class="key_label" >`</text>
<rect x="92" y="91" width="36" height="36" rx="3" ry="3" fill="mistyrose" stroke="" stroke-width="2" />
<text x="100" y="107" class="key_label" >!</text><text x="98" y="121" class="key_label" >1</text>
<rect x="134" y="91" width="36" height="36" rx="3" ry="3" fill="mistyrose" stroke="" stroke-width="2" />
<text x="140" y="107" class="key_label" >@</text><text x="140" y="121" class="key_label" >2</text>
<rect x="176" y="91" width="36" height="36" rx="3" ry="3" fill="blanchedalmond" stroke="" stroke-width="2" />
<text x="182" y="107" class="key_label" >#</text><text x="182" y="121" class="key_label" >3</text>
<rect x="218" y="91" width="36" height="36" rx="3" ry="3" fill="lemonchiffon" stroke="" stroke-width="2" />
<text x="224" y="107" class="key_label" >$</text><text x="224" y="121" class="key_label" >4</text>
<rect x="260" y="91" width="36" height="36" rx="3" ry="3" fill="lavender" stroke="" stroke-width="2" />
<text x="266" y="107" class="key_label" >%</text><text x="266" y="121" class="key_label" >5</text>
<rect x="302" y="91" width="36" height="36" rx="3" ry="3" fill="lavender" stroke="" stroke-width="2" />
<text x="308" y="107" class="key_label" >^</text><text x="308" y="121" class="key_label" >6</text>
<rect x="344" y="91" width="36" height="36" rx="3" ry="3" fill="lightcyan" stroke="" stroke-width="2" />
<text x="350" y="107" class="key_label" >&amp;</text><text x="350" y="121" class="key_label" >7</text>
<rect x="386" y="91" width="36" height="36" rx="3" ry="3" fill="lightcyan" stroke="" stroke-width="2" />
<text x="392" y="107" class="key_label" >*</text><text x="392" y="121" class="key_label" >8</text>
<rect x="428" y="91" width="36" height="36" rx="3" ry="3" fill="lemonchiffon" stroke="" stroke-width="2" />
<text x="436" y="107" class="key_label" >(</text><text x="434" y="121" class="key_label" >9</text>
<rect x="470" y="91" width="36" height="36" rx="3" ry="3" fill="blanchedalmond" stroke="" stroke-width="2" />
<text x="478" y="107" class="key_label" >)</text><text x="476" y="121" class="key_label" >0</text>
<rect x="512" y="91" width="36" height="36" rx="3" ry="3" fill="mistyrose" stroke="" stroke-width="2" />
<text x="518" y="107" class="key_label" >_</text><text x="518" y="121" class="key_label" >-</text>
<rect x="554" y="91" width="36" height="36" rx="3" ry="3" fill="mistyrose" stroke="" stroke-width="2" />
<text x="560" y="107" class="key_label" >+</text><text x="560" y="121" class="key_label" >=</text>
<rect x="596" y="91" width="77" height="36" rx="3" ry="3" fill="mistyrose" stroke="" stroke-width="2" />
<text x="607" y="114" class="key_label_sm" >Backspace</text>
<rect x="700" y="91" width="36" height="36" rx="3" ry="3" fill="lightcyan" stroke="" stroke-width="2" />
<text x="706" y="114" class="key_label_sm" >Ins</text>
<rect x="742" y="91" width="36" height="36" rx="3" ry="3" fill="lemonchiffon" stroke="" stroke-width="2" />
<text x="748" y="114" class="key_label_sm" >Home</text>
<rect x="784" y="91" width="36" height="36" rx="3" ry="3" fill="blanchedalmond" stroke="" stroke-width="2" />
<text x="790" y="114" class="key_label_sm" >PgUp</text>
<rect x="847" y="91" width="36" height="36" rx="3" ry="3" fill="lightcyan" stroke="" stroke-width="2" />
<text x="851" y="107" class="key_label_sm" >Num</text><text x="851" y="117" class="key_label_sm" >Lock</text>
<rect x="889" y="91" width="36" height="36" rx="3" ry="3" fill="lemonchiffon" stroke="" stroke-width="2" />
<text x="895" y="114" class="key_label" >/</text>
<rect x="931" y="91" width="36" height="36" rx="3" ry="3" fill="blanchedalmond" stroke="" stroke-width="2" />
<text x="937" y="114" class="key_label" >*</text>
<rect x="973" y="91" width="36" height="36" rx="3" ry="3" fill="mistyrose" stroke="" stroke-width="2" />
<text x="979" y="114" class="key_label" >-</text>
<rect x="50" y="133" width="57" height="36" rx="3" ry="3" fill="mistyrose" stroke="" stroke-width="2" />
<text x="59" y="156" class="key_label" >Tab</text>
<rect x="113" y="133" width="36" height="36" rx="3" ry="3" fill="mistyrose" stroke="" stroke-width="2" />
<text x="119" y="156" class="key_label" >Q</text>
<rect x="155" y="133" width="36" height="36" rx="3" ry="3" fill="blanchedalmond" stroke="" stroke-width="2" />
<text x="161" y="156" class="key_label" >W</text>
<rect x="197" y="133" width="36" height="36" rx="3" ry="3" fill="lemonchiffon" stroke="" stroke-width="2" />
<text x="203" y="156" class="key_label" >E</text>
<rect x="239" y="133" width="36" height="36" rx="3" ry="3" fill="lavender" stroke="" stroke-width="2" />
<text x="245" y="156" class="key_label" >R</text>
<rect x="281" y="133" width="36" height="36" rx="3" ry="3" fill="lavender" stroke="" stroke-width="2" />
<text x="287" y="156" class="key_label" >T</text>
<rect x="323" y="133" width="36" height="36" rx="3" ry="3" fill="lightcyan" stroke="" stroke-width="2" />
<text x="329" y="156" class="key_label" >Y</text>
<rect x="365" y="133" width="36" height="36" rx="3" ry="3" fill="lightcyan" stroke="" stroke-width="2" />
<text x="371" y="156" class="key_label" >U</text>
<rect x="407" y="133" width="36" height="36" rx="3" ry="3" fill="lemonchiffon" stroke="" stroke-width="2" />
<text x="413" y="156" class="key_label" >I</text>
<rect x="449" y="133" width="36" height="36" rx="3" ry="3" fill="blanchedalmond" stroke="" stroke-width="2" />
<text x="455" y="156" class="key_label" >O</text>
<rect x="491" y="133" width="36" height="36" rx="3" ry="3" fill="mistyrose" stroke="" stroke-width="2" />
<text x="497" y="156" class="key_label" >P</text>
<rect x="533" y="133" width="36" height="36" rx="3" ry="3" fill="mistyrose" stroke="" stroke-width="2" />
<text x="539" y="149" class="key_label" >{</text><text x="539" y="163" class="key_label" >[</text>
<rect x="575" y="133" width="36" height="36" rx="3" ry="3" fill="mistyrose" stroke="" stroke-width="2" />
<text x="581" y="149" class="key_label" >}</text><text x="581" y="163" class="key_label" >]</text>
<rect x="617" y="133" width="56" height="36" rx="3" ry="3" fill="mistyrose" stroke="" stroke-width="2" />
<text x="623" y="149" class="key_label" >|</text><text x="623" y="163" class="key_label" >\</text>
<rect x="700" y="133" width="36" height="36" rx="3" ry="3" fill="lightcyan" stroke="" stroke-width="2" />
<text x="706" y="156" class="key_label_sm" >Del</text>
<rect x="742" y="133" width="36" height="36" rx="3" ry="3" fill="lemonchiffon" stroke="" stroke-width="2" />
<text x="748" y="156" class="key_label_sm" >End</text>
<rect x="784" y="133" width="36" height="36" rx="3" ry="3" fill="blanchedalmond" stroke="" stroke-width="2" />
<text x="790" y="156" class="key_label_sm" >PgDn</text>
<rect x="847" y="133" width="36" height="36" rx="3" ry="3" fill="lightcyan" stroke="" stroke-width="2" />
<text x="853" y="149" class="key_label" >7</text><text x="853" y="163" class="key_label_sm" >Home</text>
<rect x="889" y="133" width="36" height="36" rx="3" ry="3" fill="lemonchiffon" stroke="" stroke-width="2" />
<text x="895" y="149" class="key_label" >8</text><text x="895" y="163" class="key_label_sm" >Up</text>
<rect x="931" y="133" width="36" height="36" rx="3" ry="3" fill="blanchedalmond" stroke="" stroke-width="2" />
<text x="937" y="149" class="key_label" >9</text><text x="937" y="163" class="key_label_sm" >PgUp</text>
<rect x="973" y="133" width="36" height="78" rx="3" ry="3" fill="mistyrose" stroke="" stroke-width="2" />
<text x="979" y="164" class="key_label" >+</text>
<rect x="50" y="175" width="67" height="36" rx="3" ry="3" fill="mistyrose" stroke="" stroke-width="2" />
<text x="60" y="198" class="key_label_sm" >Caps Lock</text>
<rect x="123" y="175" width="36" height="36" rx="3" ry="3" fill="mistyrose" stroke="" stroke-width="2" />
<text x="129" y="198" class="key_label" >A</text>
<rect x="165" y="175" width="36" height="36" rx="3" ry="3" fill="blanchedalmond" stroke="" stroke-width="2" />
<text x="171" y="198" class="key_label" >S</text>
<rect x="207" y="175" width="36" height="36" rx="3" ry="3" fill="lemonchiffon" stroke="" stroke-width="2" />
<text x="213" y="198" class="key_label" >D</text>
<rect x="249" y="175" width="36" height="36" rx="3" ry="3" fill="lavender" stroke="" stroke-width="2" />
<text x="255" y="198" class="key_label" >F</text>
<rect x="260" y="207" width="14" height="1" rx="0" ry="0" fill="white" stroke="red" stroke-width="1" /><rect x="291" y="175" width="36" height="36" rx="3" ry="3" fill="lavender" stroke="" stroke-width="2" />
<text x="297" y="198" class="key_label" >G</text>
<rect x="333" y="175" width="36" height="36" rx="3" ry="3" fill="lightcyan" stroke="" stroke-width="2" />
<text x="339" y="198" class="key_label" >H</text>
<rect x="375" y="175" width="36" height="36" rx="3" ry="3" fill="lightcyan" stroke="" stroke-width="2" />
<text x="381" y="198" class="key_label" >J</text>
<rect x="386" y="207" width="14" height="1" rx="0" ry="0" fill="white" stroke="red" stroke-width="1" /><rect x="417" y="175" width="36" height="36" rx="3" ry="3" fill="lemonchiffon" stroke="" stroke-width="2" />
<text x="423" y="198" class="key_label" >K</text>
<rect x="459" y="175" width="36" height="36" rx="3" ry="3" fill="blanchedalmond" stroke="" stroke-width="2" />
<text x="465" y="198" class="key_label" >L</text>
<rect x="501" y="175" width="36" height="36" rx="3" ry="3" fill="mistyrose" stroke="" stroke-width="2" />
<text x="509" y="191" class="key_label" >:</text><text x="509" y="205" class="key_label" >;</text>
<rect x="543" y="175" width="36" height="36" rx="3" ry="3" fill="mistyrose" stroke="" stroke-width="2" />
<text x="549" y="191" class="key_label" >&quot;</text><text x="551" y="205" class="key_label" >&apos;</text>
<rect x="585" y="175" width="88" height="36" rx="3" ry="3" fill="mistyrose" stroke="" stroke-width="2" />
<text x="598" y="198" class="key_label" >Enter</text>
<rect x="847" y="175" width="36" height="36" rx="3" ry="3" fill="lightcyan" stroke="" stroke-width="2" />
<text x="853" y="191" class="key_label" >4</text><text x="853" y="205" class="key_label_sm" >Left</text>
<rect x="889" y="175" width="36" height="36" rx="3" ry="3" fill="lemonchiffon" stroke="" stroke-width="2" />
<text x="895" y="191" class="key_label" >5</text><text x="895" y="205" class="key_label" > </text>
<rect x="900" y="207" width="14" height="1" rx="0" ry="0" fill="white" stroke="red" stroke-width="1" /><rect x="931" y="175" width="36" height="36" rx="3" ry="3" fill="blanchedalmond" stroke="" stroke-width="2" />
<text x="937" y="191" class="key_label" >6</text><text x="937" y="205" class="key_label_sm" >Right</text>
<rect x="50" y="217" width="88" height="36" rx="3" ry="3" fill="mistyrose" stroke="" stroke-width="2" />
<text x="63" y="240" class="key_label" >Shift</text>
<rect x="144" y="217" width="36" height="36" rx="3" ry="3" fill="mistyrose" stroke="" stroke-width="2" />
<text x="150" y="240" class="key_label" >Z</text>
<rect x="186" y="217" width="36" height="36" rx="3" ry="3" fill="blanchedalmond" stroke="" stroke-width="2" />
<text x="192" y="240" class="key_label" >X</text>
<rect x="228" y="217" width="36" height="36" rx="3" ry="3" fill="lemonchiffon" stroke="" stroke-width="2" />
<text x="234" y="240" class="key_label" >C</text>
<rect x="270" y="217" width="36" height="36" rx="3" ry="3" fill="lavender" stroke="" stroke-width="2" />
<text x="276" y="240" class="key_label" >V</text>
<rect x="312" y="217" width="36" height="36" rx="3" ry="3" fill="lavender" stroke="" stroke-width="2" />
<text x="318" y="240" class="key_label" >B</text>
<rect x="354" y="217" width="36" height="36" rx="3" ry="3" fill="lightcyan" stroke="" stroke-width="2" />
<text x="360" y="240" class="key_label" >N</text>
<rect x="396" y="217" width="36" height="36" rx="3" ry="3" fill="lightcyan" stroke="" stroke-width="2" />
<text x="402" y="240" class="key_label" >M</text>
<rect x="438" y="217" width="36" height="36" rx="3" ry="3" fill="lemonchiffon" stroke="" stroke-width="2" />
<text x="444" y="233" class="key_label" >&lt;</text><text x="446" y="247" class="key_label" >,</text>
<rect x="480" y="217" width="36" height="36" rx="3" ry="3" fill="blanchedalmond" stroke="" stroke-width="2" />
<text x="486" y="233" class="key_label" >&gt;</text><text x="488" y="247" class="key_label" >.</text>
<rect x="522" y="217" width="36" height="36" rx="3" ry="3" fill="mistyrose" stroke="" stroke-width="2" />
<text x="530" y="233" class="key_label" >?</text><text x="530" y="247" class="key_label" >/</text>
<rect x="564" y="217" width="109" height="36" rx="3" ry="3" fill="mistyrose" stroke="" stroke-width="2" />
<text x="579" y="240" class="key_label" >Shift</text>
<rect x="742" y="217" width="36" height="36" rx="3" ry="3" fill="lemonchiffon" stroke="" stroke-width="2" />
<text x="748" y="240" class="key_label_sm" >Up</text>
<rect x="847" y="217" width="36" height="36" rx="3" ry="3" fill="lightcyan" stroke="" stroke-width="2" />
<text x="853" y="233" class="key_label" >1</text><text x="853" y="247" class="key_label_sm" >End</text>
<rect x="889" y="217" width="36" height="36" rx="3" ry="3" fill="lemonchiffon" stroke="" stroke-width="2" />
<text x="895" y="233" class="key_label" >2</text><text x="895" y="247" class="key_label_sm" >Down</text>
<rect x="931" y="217" width="36" height="36" rx="3" ry="3" fill="blanchedalmond" stroke="" stroke-width="2" />
<text x="937" y="233" class="key_label" >3</text><text x="937" y="247" class="key_label_sm" >PgDn</text>
<rect x="973" y="217" width="36" height="78" rx="3" ry="3" fill="mistyrose" stroke="" stroke-width="2" />
<text x="979" y="248" class="key_label_sm" >Enter</text>
<rect x="50" y="259" width="57" height="36" rx="3" ry="3" fill="mistyrose" stroke="" stroke-width="2" />
<text x="59" y="282" class="key_label" >Ctrl</text>
<rect x="113" y="259" width="36" height="36" rx="3" ry="3" fill="blanchedalmond" stroke="" stroke-width="2" />
<text x="119" y="282" class="key_label" >Win</text>
<rect x="155" y="259" width="58" height="36" rx="3" ry="3" fill="lightskyblue" stroke="" stroke-width="2" />
<text x="164" y="282" class="key_label" >Alt</text>
<rect x="219" y="259" width="246" height="36" rx="3" ry="3" fill="lightskyblue" stroke="" stroke-width="2" />

<rect x="471" y="259" width="46" height="36" rx="3" ry="3" fill="lightskyblue" stroke="" stroke-width="2" />
<text x="478" y="282" class="key_label" >Alt Gr</text>
<rect x="523" y="259" width="46" height="36" rx="3" ry="3" fill="lightcyan" stroke="" stroke-width="2" />
<text x="530" y="282" class="key_label" >Win</text>
<rect x="575" y="259" width="46" height="36" rx="3" ry="3" fill="lemonchiffon" stroke="" stroke-width="2" />
<text x="582" y="282" class="key_label" >Menu</text>
<rect x="627" y="259" width="46" height="36" rx="3" ry="3" fill="blanchedalmond" stroke="" stroke-width="2" />
<text x="634" y="282" class="key_label" >Ctrl</text>
<rect x="700" y="259" width="36" height="36" rx="3" ry="3" fill="lightcyan" stroke="" stroke-width="2" />
<text x="706" y="282" class="key_label_sm" >Left</text>
<rect x="742" y="259" width="36" height="36" rx="3" ry="3" fill="lemonchiffon" stroke="" stroke-width="2" />
<text x="748" y="282" class="key_label_sm" >Down</text>
<rect x="784" y="259" width="36" height="36" rx="3" ry="3" fill="blanchedalmond" stroke="" stroke-width="2" />
<text x="790" y="282" class="key_label_sm" >Right</text>
<rect x="847" y="259" width="77" height="36" rx="3" ry="3" fill="lightcyan" stroke="" stroke-width="2" />
<text x="853" y="275" class="key_label" >0</text><text x="853" y="289" class="key_label_sm" >Ins</text>
<rect x="930" y="259" width="36" height="36" rx="3" ry="3" fill="blanchedalmond" stroke="" stroke-width="2" />
<text x="938" y="275" class="key_label" >.</text><text x="936" y="289" class="key_label_sm" >Del</text>
<rect x="40" y="40" width="985" height="271" rx="3" ry="3" style="fill-opacity: .0;" stroke="black" stroke-width="3" /></svg>